<svg version="1.1"
  width="960" height=" 430"
  viewBox="0 0 960 430"
  fill="none"
  stroke="none"
  stroke-linecap="square"
  stroke-miterlimit="10"
  xmlns:xlink="http://www.w3.org/1999/xlink" xmlns="http://www.w3.org/2000/svg">

  <mask id="stripes">
    <rect x="0" y="0" width="960" height="540" fill="#ffffff"/>
    <path fill="#000000" d="m67.05189 78.72801l83.21259 0l0 17.858261l-83.21259 0z" fill-rule="evenodd"/>
    <path fill="#000000" d="m67.05189 288.04504l83.21259 0l0 17.858276l-83.21259 0z" fill-rule="evenodd"/>
    <path fill="#000000" d="m67.05189 218.2727l83.21259 0l0 17.858276l-83.21259 0z" fill-rule="evenodd"/>
    <path fill="#000000" d="m67.05189 148.50035l83.21259 0l0 17.858276l-83.21259 0z" fill-rule="evenodd"/>
  </mask>

  <g mask="url(#stripes)">
    <path fill="#434343" d="m77.685936 25.102612l0 290.10013c0 12.190033 -2.901001 21.274017 -8.702988 27.251831c-5.743393 5.91922 -14.563602 8.878815 -26.460579 8.878815c-7.1499405 0 -13.625883 -0.7032776 -19.427872 -2.1098022l0 53.976196c7.5601673 1.4651184 16.761284 2.1977234 27.603397 2.1977234c29.12717 0 50.81135 -7.5601807 65.0526 -22.680573c14.241241 -15.178955 21.361862 -38.240448 21.361862 -69.18448l0 -288.42984z" fill-rule="evenodd"/>
    <path fill="#434343" d="m265.64917 73.71636c20.512085 0 30.768127 12.424477 30.768127 37.273468l0 206.3227c0 24.848969 -10.2560425 37.273468 -30.768127 37.273468c-20.51207 0 -30.768112 -12.4244995 -30.768112 -37.273468l0 -206.3227c0 -24.848991 10.2560425 -37.273468 30.768112 -37.273468zm0 -53.976204c-29.185745 0 -51.514618 8.292765 -66.98659 24.878283c-15.47197 16.526917 -23.207947 39.910744 -23.207947 70.15148l0 198.76251c0 30.240753 7.735977 53.6539 23.207947 70.23941c15.47197 16.526917 37.800842 24.790375 66.98659 24.790375c29.127167 0 51.426697 -8.263458 66.89868 -24.790375c15.530579 -16.58551 23.295868 -39.998657 23.295868 -70.23941l0 -198.76251c0 -30.240738 -7.7652893 -53.624565 -23.295868 -70.15148c-15.471954 -16.585518 -37.771515 -24.878283 -66.89868 -24.878283z" fill-rule="evenodd"/>
    <path fill="#434343" d="m483.8038 79.166725c10.4904785 0 18.13855 3.0475235 22.944244 9.142548c4.8642883 6.095024 7.2964478 15.999458 7.2964478 29.713287l0 21.098183c0 14.35849 -2.9596252 24.614563 -8.878815 30.768204c-5.9191895 6.0950165 -14.827301 9.142548 -26.724304 9.142548l-23.207947 0l0 -99.86477zm-2.1098022 153.92886c13.655182 0 23.442383 3.3405457 29.361572 10.021652c5.9778137 6.6224976 8.966705 18.578125 8.966705 35.866913l0 32.96591c0 13.655243 -2.5200195 23.295929 -7.5601807 28.92212c-5.0401 5.5675964 -12.776062 8.351379 -23.207916 8.351379l-34.020752 0l0 -116.127975zm-85.88699 -207.99298l0 378.09717l93.447174 0c29.537384 0 51.954132 -7.648102 67.250275 -22.944275c15.296204 -15.296204 22.944275 -37.5372 22.944275 -66.72305l0 -32.438446c0 -42.48941 -14.768738 -68.77425 -44.30609 -78.85449l0 -1.0549164c12.951904 -5.391754 22.563232 -14.21196 28.834106 -26.460648c6.3294067 -12.248657 9.494141 -28.101593 9.494141 -47.55883l0 -15.120369c0 -29.478851 -7.032715 -51.33892 -21.098145 -65.58021c-14.006775 -14.24128 -36.306335 -21.36192 -66.89865 -21.36192z" fill-rule="evenodd"/>
    <path fill="#434343" d="m614.01227 25.102612l0 378.09717l157.18115 0l0 -53.976196l-97.7547 0l0 -324.12097zm120.95068 0l71.82153 217.13553l0 160.96162l59.426453 0l0 -160.96162l71.821594 -217.13553l-57.756165 0l-40.526 138.8085l-1.0549316 0l-40.526 -138.8085z" fill-rule="evenodd"/>
  </g>
</svg>


