<svg version="1.1" viewBox="0.0 0.0 330.0 170.0" fill="none" stroke="none" stroke-linecap="square" stroke-miterlimit="10" xmlns:xlink="http://www.w3.org/1999/xlink" xmlns="http://www.w3.org/2000/svg"><clipPath id="p.0"><path d="m0 0l960.0 0l0 540.0l-960.0 0l0 -540.0z" clip-rule="nonzero"/></clipPath><g clip-path="url(#p.0)"><path fill="#ffffff" d="m0 0l960.0 0l0 540.0l-960.0 0z" fill-rule="evenodd"/><path fill="#000000" fill-opacity="0.0" d="m9.072219 -17.041994l566.42523 0l0 250.74016l-566.42523 0z" fill-rule="evenodd"/><path fill="#434343" d="m170.38472 24.46301l-5.5 1.03125q-9.859375 17.031248 -18.9375 45.828125q-3.46875 10.875 -9.734375 25.015625q-6.265625 14.140625 -13.953125 26.1875q-10.359375 16.125 -27.578125 26.546875q-17.21875 10.4375 -31.421875 12.359375q-6.53125 0.890625 -14.859375 0.890625q-8.3125 0 -17.140625 -2.9375q-13.828125 -4.609375 -18.953125 -15.109375q-2.296875 -4.859375 -2.296875 -11.390625q0 -6.53125 3.453125 -15.359375q2.4375 -5.890625 8.578126 -11.0q6.140625 -5.125 9.59375 -5.25q1.53125 -0.140625 1.53125 0.5q-0.125 0.515625 -1.65625 1.28125q-4.09375 1.671875 -9.09375 7.3125q-4.984375 5.625 -6.578126 11.3125q-1.609375 5.703125 -1.609375 8.765625q0 9.34375 5.000001 15.109375q3.453125 3.84375 8.5625 6.90625q5.125 3.078125 11.015625 4.234375q8.703125 1.65625 13.8125 1.65625q5.125 0 9.09375 -1.015625q8.703125 -1.921875 16.828125 -6.40625q8.140625 -4.484375 14.40625 -9.796875q6.28125 -5.3125 12.484375 -13.125q6.203125 -7.796875 10.421875 -14.1875q4.234375 -6.40625 8.96875 -15.375q7.671875 -14.578125 15.75 -33.53125q10.109375 -22.531254 20.46875 -38.90625q-17.78125 2.9375 -36.21875 12.796873q-9.34375 4.984375 -16.0 12.671875q-8.578125 9.734375 -8.578125 20.859379q0 6.015625 2.875 9.34375q2.890625 3.328125 6.078125 3.328125q3.203125 0 7.046875 -1.40625q3.84375 -1.40625 6.90625 -4.859375q4.875 -5.640625 4.875 -12.9375q0 -3.0625038 -0.90625 -4.093754q-1.53125 -1.015625 -0.25 -1.921875q1.40625 -0.765625 2.9375 0.90625q1.28125 2.8125 1.28125 6.593754q0 3.765625 -2.8125 8.640625q-4.734375 8.0625 -13.046875 11.0q-3.84375 1.28125 -7.296875 1.28125q-5.765625 0 -10.375 -3.71875q-5.890625 -4.859375 -5.890625 -13.046875q0 -10.375004 7.421875 -19.843754q5.640625 -7.296875 13.25 -12.03125q7.625 -4.734375 17.21875 -8.453123q15.484375 -6.015625 33.671875 -8.4375q1.53125 -2.5625 4.59375 -6.015625q3.078125 -3.453126 5.125 -4.093751q2.046875 -0.640625 3.328125 -0.640625q4.484375 0 4.484375 3.828125q-0.125 3.468751 -2.8125 5.328126q-2.6875 1.84375 -7.5625 3.375zm3.96875 -8.4375q-0.25 0 -0.578125 0.125q-0.3125 0.125 -0.890625 0.578125q-0.578125 0.453125 -1.09375 0.84375q-0.5 0.375 -1.203125 1.140625q-0.703125 0.765625 -1.15625 1.21875q-0.453125 0.4375 -1.21875 1.28125q-0.765625 0.828125 -1.03125 1.078125q8.84375 -1.53125 8.71875 -4.734375q-0.265625 -1.53125 -1.546875 -1.53125zm-2.0394745 54.015625q9.34375 0 9.34375 11.765625q0 5.390625 -2.8125 11.53125q-3.59375 8.3125 -10.75 15.09375q1.65625 3.203125 6.015625 3.203125q3.453125 0 6.515625 -3.453125q3.84375 -3.96875 5.5 -6.96875q1.671875 -3.015625 2.4375 -4.421875q0.765625 -1.40625 1.984375 -4.03125q1.21875 -2.625 1.46875 -3.203125q0.265625 -0.578125 0.90625 -0.578125q1.28125 -0.125 1.28125 0.90625q0 0.375 -0.265625 0.890625l-0.765625 1.796875q-0.765625 1.78125 -1.15625 2.5625q-0.375 0.765625 -1.34375 2.75q-0.953125 1.984375 -1.65625 3.140625q-0.703125 1.140625 -1.921875 3.0625q-1.21875 1.921875 -2.1875 3.078125q-0.953125 1.140625 -2.359375 2.546875q-1.40625 1.40625 -2.6875 2.1875q-3.203125 1.90625 -6.015625 1.90625q-5.25 0 -8.1875 -3.328125q-5.890625 4.359375 -10.875 4.359375q-9.34375 0 -9.34375 -11.78125q0 -5.375 2.8125 -11.515625q3.84375 -8.953125 10.8125 -15.21875q6.96875 -6.28125 13.25 -6.28125zm1.40625 3.96875q-3.453125 0 -8.1875 4.609375q-4.734375 4.609375 -8.453125 12.53125q-4.484375 9.21875 -4.484375 15.109375q0 5.890625 4.484375 5.890625q3.203125 0 7.171875 -3.453125q-2.046875 -2.953125 -2.046875 -6.28125q0.25 -5.5 4.46875 -5.5q1.671875 0 2.75 1.15625q1.09375 1.15625 1.09375 2.109375q0 0.953125 -0.25 1.984375q2.171875 -3.203125 4.984375 -9.09375q3.203125 -6.515625 3.203125 -12.78125q0 -6.28125 -4.734375 -6.28125zm50.42688 6.015625q0 -7.296875 -6.015625 -7.296875q-0.515625 0 -1.015625 0q-2.3125 0.25 -2.703125 -0.890625q-0.375 -1.15625 1.15625 -1.53125q1.546875 -0.390625 3.328125 -0.140625q6.65625 1.03125 9.09375 6.265625q1.65625 3.203125 1.65625 6.28125q0 11.0 -8.0625 21.625q-8.0625 10.75 -20.859375 10.75q-4.734375 0 -7.6875 -2.6875q-2.9375 -2.6875 -2.9375 -7.15625q0 -5.375 6.140625 -18.1875q-10.484375 19.84375 -13.5625 22.796875q-1.28125 1.140625 -1.28125 -0.78125q0 -0.375 0.25 -0.890625q4.484375 -5.890625 17.859375 -32.0q13.375 -26.109379 18.75 -34.17188q4.359375 -6.28125 8.453125 -6.28125q0 0 0.125 0l0.640625 0q0.125 0 2.234375 0.390625q2.125 0.375 3.140625 0.125q-4.21875 4.484375 -13.3125 17.921875q-22.53125 33.406254 -22.53125 49.92188q0 6.78125 4.359375 7.671875q0.390625 0.140625 0.890625 0.140625q3.96875 0 9.921875 -7.109375q5.953125 -7.109375 9.796875 -16.1875q2.171875 -4.734375 2.171875 -8.578125zm18.956879 10.109375q-0.140625 0.515625 -1.171875 3.53125q-1.015625 3.0 -1.71875 5.75q-0.703125 2.75 -0.703125 5.5q0 2.75 1.28125 5.125q1.28125 2.359375 4.09375 2.359375q4.609375 0 8.953125 -6.203125q4.359375 -6.203125 9.21875 -15.8125q1.03125 -1.78125 1.921875 -1.40625q0.640625 0.515625 0.25 1.34375q-0.375 0.828125 -1.59375 3.59375q-1.21875 2.75 -1.796875 3.84375q-0.5625 1.078125 -2.046875 3.828125q-1.46875 2.75 -2.5625 4.09375q-1.078125 1.34375 -2.9375 3.46875q-1.84375 2.109375 -3.515625 3.125q-4.484375 2.8125 -8.453125 2.8125q-3.96875 0 -6.140625 -1.71875q-2.171875 -1.734375 -2.625 -3.71875q-0.4375 -1.984375 -0.4375 -3.515625q0 -1.53125 0.125 -3.96875q0.375 -4.09375 1.59375 -7.9375q1.21875 -3.84375 1.34375 -4.34375q2.953125 -10.625 8.390625 -23.171875q5.4375 -12.546879 9.203125 -18.875004q3.78125 -6.34375 5.953125 -8.640625q4.359375 -4.609375 8.578125 -4.609375q2.953125 0 3.96875 4.21875q0.125 0.765625 0.125 1.921875q0 4.34375 -3.0625 11.0q-11.015625 24.453129 -26.234375 38.406254zm1.015625 -4.09375q6.53125 -6.65625 12.921875 -16.765625q6.40625 -10.125004 9.40625 -17.218754q3.015625 -7.109375 3.015625 -9.671875q0 -2.5625 -0.890625 -2.5625q-1.28125 0 -4.875 5.0625q-3.578125 5.0625 -9.65625 18.1875q-6.078125 13.109379 -9.921875 22.968754zm1.4016266 69.25q-5.625 0 -8.6875 -2.375q-3.078125 -2.359375 -3.078125 -5.6875q0 -3.328125 1.90625 -7.5625q3.328125 -6.53125 12.046875 -10.484375q6.515625 -3.078125 17.26561 -5.703125q10.765625 -2.625 13.828125 -3.515625q4.609375 -8.0625 11.015625 -28.8125q-7.421875 13.0625 -12.421875 18.3125q-4.984375 5.25 -10.109375 5.25q-6.90625 0 -8.0625 -5.765625q-0.515625 -0.890625 -0.265625 -2.6875q0.265625 -1.796875 0.328125 -2.5625q0.0625 -0.765625 0.828125 -2.484375q0.765625 -1.734375 1.03125 -2.5q1.40625 -2.953125 2.421875 -4.609375q-2.046875 0 -1.140625 -2.046875l2.296875 -4.484375q4.359375 -8.3125 7.171875 -14.078125q1.28125 -2.6875 4.984375 -2.6875l7.8125 0q-0.25 0.25 -1.28125 1.015625q-2.296875 1.546875 -3.453125 3.59375q-4.609375 7.9375 -11.515625 22.65625q-2.828125 6.015625 -2.828125 8.828125q0 2.8125 0.953125 3.96875q0.96875 1.15625 2.640625 1.15625q2.421875 0 6.78125 -5.125q9.09375 -10.625 20.09375 -33.40625q1.40625 -2.6875 5.0 -2.6875l6.90625 0q-3.328125 2.296875 -5.25 5.828125q-1.921875 3.515625 -4.171875 9.53125q-2.234375 6.015625 -5.625 16.0q-3.390625 9.984375 -5.171875 14.96875q12.03125 -3.578125 18.421875 -12.671875q2.8125 -3.96875 8.0625 -14.078125q0.90625 -1.78125 1.609375 -1.390625q0.703125 0.375 0.703125 1.015625q0 0.640625 -2.125 4.9375q-2.109375 4.28125 -4.28125 7.9375q-2.171875 3.640625 -5.625 7.484375q-3.453125 3.828125 -7.6875 6.0625q-4.21875 2.25 -11.265625 4.8125q-9.84375 17.90625 -19.828125 26.359375q-9.34375 7.6875 -20.23436 7.6875zm-7.421875 -12.671875q-1.40625 2.8125 -1.40625 5.171875q0 2.375 1.796875 3.65625q1.78125 1.28125 4.46875 1.28125q7.4375 0 15.874985 -7.625q8.453125 -7.609375 14.84375 -16.3125l2.828125 -4.734375q-21.124985 5.5 -26.624985 7.9375q-8.203125 3.578125 -11.78125 10.625z" fill-rule="nonzero"/></g></svg>